<?xml version="1.0" encoding="UTF-8"?>
<svg width="500px" height="500px" viewBox="0 0 500 500" version="1.1" xmlns="http://www.w3.org/2000/svg" xmlns:xlink="http://www.w3.org/1999/xlink">
    <!-- Generator: Sketch 50.2 (55047) - http://www.bohemiancoding.com/sketch -->
    <title>icon_calendar</title>
    <desc>Created with Sketch.</desc>
    <defs></defs>
    <g id="icon_calendar" stroke="none" stroke-width="1" fill="none" fill-rule="evenodd">
        <path d="M426,52 L404,52 L404,8 L360,8 L360,52 L140,52 L140,8 L96,8 L96,52 L74,52 C49.8,52 30,71.8 30,96 L30,448 C30,472.2 49.8,492 74,492 L426,492 C450.2,492 470,472.2 470,448 L470,96 C470,71.8 450.2,52 426,52 Z M426,448 L74,448 L74,162 L426,162 L426,448 Z" id="Combined-Shape" fill="#37EBC2" fill-rule="nonzero"></path>
    </g>
</svg>